# xmcd CD database file
#
# Track frame offsets:
#	150
#	27757
#	49138
#	73730
#	94520
#	128147
#	148596
#	164976
#	182134
#	212342
#	231919
#	262200
#	278845
#
# Disc length: 4271 seconds
#
# Revision: 0
# Processed by: cddbd v1.5.2PL0 Copyright (c) Steve Scherf et al.
# Submitted via: CDex 1.70beta2
#
DISCID=c510ad0d
DTITLE=Clifford White - The Best Of
DYEAR=1900
DGENRE=New Age
TTITLE0=Island of Love
TTITLE1=Hyn-Halaya
TTITLE2=Nomads
TTITLE3=Rapture
TTITLE4=In the Womb of the Rainbow Serpent
TTITLE5=Shimmering Gold
TTITLE6=Plateau
TTITLE7=Lost at Shore
TTITLE8=Atlantic Heights
TTITLE9=The Last Snows of Winter
TTITLE10=Legend of the Sky Hero
TTITLE11=Twilight Paradise
TTITLE12=Inspirations
EXTD=
EXTT0=
EXTT1=
EXTT2=
EXTT3=
EXTT4=
EXTT5=
EXTT6=
EXTT7=
EXTT8=
EXTT9=
EXTT10=
EXTT11=
EXTT12=
PLAYORDER=
